<?xml version="1.0" encoding="utf-8"?>
<!-- Generator: Adobe Illustrator 14.0.0, SVG Export Plug-In  -->
<!DOCTYPE svg PUBLIC "-//W3C//DTD SVG 1.1//EN" "http://www.w3.org/Graphics/SVG/1.1/DTD/svg11.dtd" [
	<!ENTITY ns_flows "http://ns.adobe.com/Flows/1.0/">
]>
<svg version="1.1"
	 xmlns="http://www.w3.org/2000/svg" xmlns:xlink="http://www.w3.org/1999/xlink" xmlns:a="http://ns.adobe.com/AdobeSVGViewerExtensions/3.0/"
	 x="0px" y="0px" width="220px" height="70px" viewBox="2.296 -0.391 220 70" enable-background="new 2.296 -0.391 220 70"
	 xml:space="preserve">
<defs>
</defs>
<polygon fill="none" points="177.536,34.836 192.697,34.836 181.939,10.711 "/>
<polygon fill="none" points="148.52,54.23 148.584,54.064 148.459,54.064 "/>
<polygon fill="#405587" points="169.054,52.797 171.354,40.201 166.716,40.201 "/>
<path fill="#405587" d="M143.56,40.532l4.9,13.532h0.125l5.395-13.863h-10.598C143.454,40.307,143.518,40.417,143.56,40.532z"/>
<path fill="#405587" d="M125.06,41.402l5.335,10.681l8.33-11.882H122.62C123.72,40.201,124.701,40.684,125.06,41.402z"/>
<polygon fill="#E7F1FF" points="160.805,36.395 157.939,43.76 162.173,43.76 "/>
<path fill="#E7F1FF" d="M196.118,42.508l-14.179-31.796l-6.031,33.048h22.578C197.395,43.73,196.441,43.233,196.118,42.508z"/>
<path fill="none" d="M1,43.274h120.09l0,0l1.184-1.911l-1.184,1.911l6.912,13.838c0.258,0.517,1.005,0.888,1.859,0.922l0.15,0.003
	c0.802,0,1.564-0.319,1.896-0.793l8.513-12.147l5.975,16.502c0.212,0.585,1.06,1.015,2.014,1.021
	c0.959-0.004,1.822-0.426,2.047-1.002l10.52-27.032l6.034,32.487c0.119,0.643,1.027,1.146,2.068,1.146l0.003,0.5l0-0.5
	c1.041-0.001,1.948-0.506,2.066-1.149l10.59-58.03l14.837,33.272c0.253,0.566,1.08,0.962,2.01,0.962h26.785V40.71h-25.204
	L182.888,1.961c-0.267-0.596-1.21-1.01-2.204-0.955c-0.962,0.058-1.768,0.549-1.875,1.143l-9.262,50.747l-0.983,0.001l-4.791-25.803
	c-0.113-0.606-0.938-1.098-1.918-1.143l-0.148-0.003c-0.951,0-1.804,0.42-2.029,1l-11.173,28.713l-5.414-14.949
	c-0.194-0.534-0.936-0.95-1.804-1.01c-0.921-0.069-1.78,0.264-2.142,0.782l-8.821,12.583l-5.71-11.432
	c-0.272-0.545-1.092-0.925-1.994-0.925v0.212V40.71H1V43.274z"/>
<path fill="#1B1464" d="M200.816,39.71L183.801,1.554c-0.442-0.989-1.757-1.634-3.178-1.545c-1.454,0.088-2.604,0.895-2.798,1.961
	l-8.774,48.074l-4.294-23.133c-0.203-1.084-1.376-1.89-2.856-1.959l-0.194-0.004c-1.391,0-2.581,0.658-2.961,1.638l-10.208,26.232
	l-4.507-12.446c-0.335-0.922-1.385-1.577-2.672-1.667c-1.271-0.098-2.462,0.389-3.033,1.207l-7.857,11.208l-4.96-9.931
	c-0.449-0.898-1.583-1.478-2.888-1.478v1c0.901,0,1.721,0.38,1.994,0.925l5.71,11.432l8.821-12.583
	c0.362-0.519,1.221-0.852,2.142-0.782c0.868,0.061,1.61,0.476,1.804,1.01l5.414,14.949l11.173-28.713c0.226-0.58,1.079-1,2.029-1
	l0.148,0.003c0.981,0.045,1.806,0.537,1.918,1.143l4.791,25.803l0.983-0.001l9.262-50.747c0.107-0.593,0.913-1.084,1.875-1.143
	c0.994-0.055,1.937,0.359,2.204,0.955l17.279,38.749h25.204v2.564h-26.785c-0.931,0-1.757-0.396-2.01-0.962L181.738,9.04
	l-10.59,58.03c-0.118,0.644-1.026,1.148-2.066,1.149l0,0.5l-0.003-0.5c-1.041,0-1.949-0.503-2.068-1.146l-6.034-32.487
	l-10.52,27.032c-0.225,0.576-1.087,0.998-2.047,1.002c-0.955-0.006-1.802-0.435-2.014-1.021l-5.975-16.502l-8.513,12.147
	c-0.332,0.475-1.094,0.793-1.896,0.793l-0.15-0.003c-0.854-0.035-1.602-0.405-1.859-0.922l-6.912-13.838l-0.62,1h0.001l6.636,13.286
	c0.422,0.846,1.487,1.425,2.71,1.475l0.194,0.004c1.148,0,2.188-0.467,2.715-1.22l7.408-10.571l5.32,14.694
	c0.362,0.996,1.546,1.67,2.954,1.679c1.402-0.006,2.6-0.665,2.979-1.639l9.246-23.759l5.392,29.033
	c0.21,1.138,1.494,1.964,3.051,1.964h0.004c1.557-0.001,2.84-0.829,3.049-1.969l10.01-54.851l13.521,30.32
	c0.415,0.93,1.59,1.555,2.923,1.555h27.785V39.71H200.816z"/>
<polygon fill="none" points="121.09,43.274 1,43.274 1,40.71 122.62,40.71 122.62,39.71 0,39.71 0,44.274 120.471,44.274 
	121.09,43.274 "/>
<polygon fill="none" points="122.62,40.21 0.5,40.21 0.5,43.774 119.87,43.774 122.62,43.719 "/>
<path fill="#FFB600" d="M200.491,40.21L183.344,1.758c-0.358-0.801-1.482-1.325-2.691-1.25c-1.21,0.073-2.186,0.72-2.336,1.552
	l-9.261,50.746l-4.791-25.803c-0.158-0.845-1.157-1.494-2.387-1.551c-1.23-0.056-2.347,0.493-2.667,1.315l-10.691,27.473
	l-4.96-13.697c-0.264-0.727-1.159-1.263-2.239-1.339c-1.078-0.079-2.115,0.32-2.587,0.995l-8.338,11.896l-5.335-10.682
	c-0.359-0.719-1.339-1.202-2.441-1.202l-1.839,3.564l0,0l0,0l6.774,13.562c0.34,0.682,1.243,1.156,2.286,1.198
	c1.04,0.049,2.021-0.353,2.477-1.003l7.96-11.359l5.647,15.598c0.286,0.786,1.306,1.343,2.481,1.35
	c1.178-0.005,2.21-0.537,2.516-1.32l9.883-25.396l5.713,30.76c0.164,0.888,1.26,1.555,2.56,1.555h0.003
	c1.298-0.001,2.394-0.668,2.558-1.559l10.3-56.44l14.179,31.796c0.334,0.749,1.334,1.258,2.467,1.258h27.285V40.21H200.491z"/>
</svg>
