<?xml version="1.0" encoding="utf-8"?>
<!-- Generator: Adobe Illustrator 14.0.0, SVG Export Plug-In  -->
<!DOCTYPE svg PUBLIC "-//W3C//DTD SVG 1.1//EN" "http://www.w3.org/Graphics/SVG/1.1/DTD/svg11.dtd" [
	<!ENTITY ns_flows "http://ns.adobe.com/Flows/1.0/">
]>
<svg version="1.1"
	 xmlns="http://www.w3.org/2000/svg" xmlns:xlink="http://www.w3.org/1999/xlink" xmlns:a="http://ns.adobe.com/AdobeSVGViewerExtensions/3.0/"
	 x="0px" y="0px" width="299px" height="55px" viewBox="0 -1 299 55" enable-background="new 809.892 231.582 299 55"
	 xml:space="preserve">
<defs>
</defs>
<path fill="#FFFFFF" stroke="#1B1464" d="M257.446,0.713c-1.881,0.14-3.532,0.298-3.639,0.333
	c-0.176,0.053-0.229,4.253-0.229,20.213v20.126l4.272-0.035l4.253-0.055V20.909V0.52l-0.614-0.018
	C261.155,0.485,259.326,0.59,257.446,0.713z"/>
<path fill="#FFFFFF" stroke="#1B1464" d="M0.686,2.33C0.527,2.453,0.475,3.139,0.51,5.195l0.053,2.707l5.588,0.053l5.572,0.036
	v16.047c0,8.806,0.053,16.206,0.106,16.435l0.105,0.387l4.605-0.037l4.587-0.053l0.053-16.397L21.215,7.99h5.696
	c3.305,0,5.747-0.07,5.817-0.158c0.053-0.088,0.211-1.336,0.37-2.742c0.245-2.179,0.245-2.62,0.053-2.743
	C32.834,2.155,0.984,2.137,0.686,2.33z"/>
<path fill="#FFFFFF" stroke="#1B1464" d="M206.21,3.156c-1.635,0.123-3.006,0.228-3.024,0.246c-0.034,0-0.069,0.949-0.069,2.074
	c-0.018,1.143-0.07,2.9-0.141,3.919l-0.106,1.845l-1.933,0.088l-1.933,0.088v2.196v2.198l1.933,0.087l1.933,0.088l0.106,9.843
	c0.088,8.05,0.158,10.001,0.368,10.722c1.02,3.393,3.375,4.834,7.963,4.834c2.25,0,5.905-0.301,6.116-0.51
	c0.089-0.088,0.282-1.072,0.423-2.215c0.192-1.547,0.211-2.109,0.069-2.268c-0.123-0.105-1.09-0.229-2.302-0.281
	c-2.268-0.105-2.638-0.246-3.411-1.301c-0.369-0.475-0.369-0.668-0.369-9.65v-9.175l2.514-0.053l2.496-0.053v-2.268v-2.285h-2.319
	c-1.283,0-2.443-0.07-2.549-0.14c-0.158-0.105-0.229-1.213-0.265-4.166l-0.052-4.042l-1.231-0.019
	C209.759,2.945,207.862,3.034,206.21,3.156z"/>
<path fill="#FFFFFF" stroke="#1B1464" d="M183.677,10.626c-3.076,0.334-6.083,1.389-7.734,2.743
	c-1.653,1.354-2.513,3.269-2.513,5.607c0,2.531,0.773,4.184,2.725,5.747c1.176,0.95,2.847,1.811,6.432,3.305
	c4.008,1.672,5.326,2.883,5.345,4.904c0.017,2.988-2.479,3.812-10.284,3.393c-2.231-0.123-4.13-0.178-4.217-0.123
	c-0.105,0.07-0.176,1.055-0.176,2.285c0,1.934,0.035,2.197,0.316,2.355c0.685,0.367,5.413,0.791,8.91,0.771
	c3.92,0,5.978-0.316,8.296-1.246c2.584-1.055,4.044-2.373,5.115-4.588c0.598-1.23,0.633-1.441,0.703-3.34
	c0.053-1.723,0-2.197-0.298-3.076c-0.933-2.654-3.059-4.271-8.191-6.169c-4.745-1.757-5.889-2.654-5.889-4.57
	c0-2.619,2.127-3.303,9.018-2.9c2.249,0.141,3.901,0.158,3.99,0.07c0.246-0.264,0.79-3.92,0.614-4.096
	c-0.246-0.246-4.025-0.861-6.504-1.072C186.962,10.433,185.541,10.433,183.677,10.626z"/>
<path fill="#FFFFFF" stroke="#1B1464" d="M37.615,11.065c-2.971,0.545-5.379,1.724-7.172,3.516
	c-1.495,1.494-2.391,2.988-3.058,5.098c-0.774,2.355-0.949,4.059-0.844,7.522c0.105,3.604,0.457,5.221,1.634,7.646
	c1.723,3.551,4.799,5.605,9.545,6.434c3.164,0.545,12.69,0.209,13.639-0.492c0.281-0.211,0.967-4.57,0.738-4.801
	c-0.071-0.068-1.248-0.016-2.637,0.09c-1.371,0.123-3.515,0.211-4.746,0.211c-5.976,0-8.56-1.811-8.859-6.205L35.75,28.73h9.844
	c8.612,0,9.878-0.035,10.071-0.264c0.175-0.211,0.193-0.809,0.105-2.513c-0.229-4.184-0.879-7.153-2.091-9.438
	c-0.668-1.248-2.496-3.165-3.691-3.85c-1.178-0.703-3.111-1.336-4.868-1.618C43.275,10.75,39.319,10.75,37.615,11.065z
	 M43.625,16.146c1.159,0.492,1.863,1.143,2.374,2.25c0.526,1.125,0.949,3.393,0.843,4.711l-0.052,0.791l-5.554,0.053
	c-4.868,0.035-5.572,0-5.677-0.229c-0.175-0.475,0.229-3.708,0.579-4.675c0.633-1.688,1.776-2.708,3.48-3.146
	C40.55,15.671,42.8,15.812,43.625,16.146z"/>
<path fill="#FFFFFF" stroke="#1B1464" d="M121.402,10.96c-5.22,0.967-8.542,3.48-10.299,7.822
	c-1.863,4.64-1.669,11.741,0.439,16.013c1.881,3.797,5.115,5.869,10.371,6.607c1.02,0.143,2.759,0.176,5.537,0.088
	c4.446-0.123,7.242-0.42,7.487-0.789c0.123-0.229,0.528-3.094,0.598-4.238c0.017-0.508,0.352-0.49-5.606-0.262
	c-3.797,0.141-5.326,0.018-7.013-0.615c-1.231-0.475-2.444-1.547-2.988-2.689c-0.457-0.914-0.896-3.393-0.704-3.902
	c0.088-0.229,1.372-0.264,9.984-0.299l9.86-0.053l0.053-2.003c0.053-2.496-0.352-5.537-1.02-7.646
	c-1.054-3.27-2.794-5.379-5.518-6.68c-2.285-1.107-3.639-1.371-7.313-1.441C123.583,10.854,121.841,10.89,121.402,10.96z
	 M127.238,16.215c1.723,0.756,2.725,2.654,2.918,5.502c0.07,0.914,0.105,1.81,0.07,1.968c-0.052,0.282-0.546,0.3-5.695,0.3h-5.642
	l0.105-1.723c0.122-2.302,0.633-3.884,1.582-4.904c0.809-0.878,1.107-1.072,2.232-1.389
	C123.881,15.654,126.271,15.776,127.238,16.215z"/>
<path fill="#FFFFFF" stroke="#1B1464" d="M229.324,10.908c-0.335,0.035-1.723,0.157-3.077,0.263
	c-1.406,0.105-2.549,0.264-2.671,0.387c-0.158,0.158-0.158,0.668,0.053,2.231c0.141,1.108,0.333,2.093,0.422,2.18
	c0.176,0.176,0.703,0.176,4.676-0.07c7.47-0.457,10.141,0.862,10.562,5.22c0.089,0.95,0.07,1.108-0.175,1.108
	c-0.158,0-1.582-0.123-3.146-0.281c-6.451-0.633-10.881,0.21-13.412,2.584c-1.861,1.74-2.566,3.638-2.566,6.89
	c0.019,4.166,1.442,6.801,4.535,8.436c2.654,1.389,5.396,1.793,11.18,1.654c3.726-0.09,11.072-0.756,11.952-1.107
	c0.281-0.105,0.299-0.932,0.299-10.248c0-11.284-0.035-11.618-1.16-13.85c-1.476-2.935-4.377-4.693-8.771-5.326
	C236.898,10.82,230.817,10.784,229.324,10.908z M239.412,27.341c0.142,0.861,0.123,7.805-0.017,8.367
	c-0.089,0.404-0.124,0.404-3.305,0.404c-4.009,0-5.08-0.264-6.205-1.477c-0.861-0.932-1.09-1.688-1.09-3.533
	c0-1.67,0.37-2.637,1.248-3.305c1.248-0.949,2.232-1.125,6.239-1.16l3.006-0.018L239.412,27.341z"/>
<path fill="#FFFFFF" stroke="#1B1464" d="M278.625,11.083c-3.374,0.527-5.659,1.6-7.751,3.673c-1.582,1.564-2.425,2.935-3.146,5.062
	c-1.459,4.378-1.195,10.636,0.599,14.429c2.214,4.605,6.396,6.996,12.795,7.262c3.006,0.123,5.132-0.123,7.329-0.846
	c2.355-0.789,3.532-1.477,5.133-3.057c1.159-1.16,1.564-1.705,2.231-3.076c1.354-2.742,1.583-3.885,1.6-7.91
	c0.019-3.639-0.14-4.904-0.878-7.101c-0.949-2.76-3.042-5.361-5.344-6.662C287.977,11.083,283.107,10.381,278.625,11.083z
	 M285.129,16.057c1.037,0.458,1.511,0.862,2.196,1.934c1.125,1.774,1.705,6.046,1.406,10.547c-0.298,4.445-1.247,6.52-3.497,7.592
	c-0.616,0.316-1.213,0.422-2.583,0.475c-3.024,0.123-4.677-0.633-5.802-2.689c-0.913-1.635-1.159-3.041-1.248-6.855
	c-0.122-5.22,0.458-8.103,1.933-9.719c1.284-1.389,2.532-1.811,5.046-1.723C283.828,15.654,284.46,15.759,285.129,16.057z"/>
<path fill="#FFFFFF" stroke="#1B1464" d="M71.045,11.259c-4.095,0.281-10.054,0.878-10.51,1.037
	c-0.281,0.123-0.299,0.932-0.264,14.396l0.053,14.255h4.218h4.219l0.052-12.217c0.018-6.714,0.088-12.25,0.176-12.321
	c0.07-0.071,1.634-0.229,3.462-0.352c1.846-0.105,3.445-0.281,3.568-0.386c0.299-0.229,0.299-4.183,0-4.482
	C75.773,10.942,75.685,10.942,71.045,11.259z"/>
<path fill="#FFFFFF" stroke="#1B1464" d="M77.988,11.488c0,0.088,0.844,3.163,1.863,6.82c1.02,3.656,2.074,7.47,2.355,8.489
	c2.338,8.507,3.92,13.992,4.095,14.097c0.123,0.068,3.48,0.141,7.453,0.141h7.259l0.229-0.404c0.139-0.211,0.456-1.143,0.702-2.057
	c0.246-0.914,1.424-5.15,2.583-9.404c4.184-15.168,4.746-17.225,4.746-17.523s-0.298-0.317-4.218-0.317h-4.201l-0.264,0.914
	c-0.246,0.862-3.393,13.007-5.29,20.442c-0.458,1.74-0.879,3.234-0.967,3.303c-0.071,0.09-0.316,0.125-0.545,0.09
	c-0.439-0.053-0.351,0.264-4.623-16.576c-1.037-4.06-1.951-7.557-2.038-7.786c-0.177-0.387-0.177-0.387-4.658-0.387
	C79.851,11.329,77.988,11.399,77.988,11.488z"/>
<path fill="#FFFFFF" stroke="#1B1464" d="M139.612,11.47c-0.053,0.087,0.492,1.916,1.212,4.095
	c0.703,2.163,2.849,8.718,4.747,14.573c1.915,5.85,3.549,10.684,3.672,10.756c0.105,0.068,1.371,0.141,2.795,0.141
	c3.023,0,3.04,0,2.408,1.547c-0.983,2.371-3.393,5.641-6.646,9.033c-1.476,1.529-1.458,1.547,2.955,1.547
	c2.882,0,3.813-0.053,4.183-0.246c0.65-0.352,3.129-2.9,4.235-4.377c2.32-3.074,4.288-7.188,5.836-12.162
	c0.896-2.883,6.961-24.8,6.889-24.924c-0.034-0.071-1.933-0.124-4.2-0.124c-4.112,0-4.112,0-4.288,0.387
	c-0.141,0.334-2.46,9.158-5.872,22.2c-0.543,2.109-0.543,2.109-1.07,2.109h-0.528l-3.182-10.546
	c-1.757-5.8-3.444-11.354-3.743-12.356l-0.544-1.793h-4.395C141.668,11.329,139.665,11.399,139.612,11.47z"/>
<path fill="#FFFFFF" stroke="#1B1464" d="M1.354,50.876v2.109h70.64h70.624l1.406-1.477c1.582-1.633,2.074-2.285,1.898-2.566
	c-0.07-0.123-22.339-0.176-72.346-0.176H1.354V50.876z"/>
<path fill="#FFFFFF" stroke="#1B1464" d="M163.235,48.908c-0.158,0.07-0.633,0.51-1.055,1.002c-0.438,0.475-1.125,1.23-1.528,1.67
	c-0.423,0.441-0.757,0.932-0.757,1.09c0,0.301,3.375,0.316,68.373,0.316h68.391l-0.053-2.072l-0.052-2.059l-66.528-0.035
	C193.432,48.802,163.376,48.839,163.235,48.908z"/>
</svg>
